<?xml version="1.0" encoding="UTF-8"?>
<svg width="1200pt" height="1200pt" version="1.1" viewBox="0 0 1200 1200" xmlns="http://www.w3.org/2000/svg">
 <g fill="#fff">
  <path d="m341.82 354v189.8c112.4-79.801 237.8-120.6 239.6-121.2 5.8008-2 12.199-3 18.602-3 6.6016 0 13.199 1 19.402 3.1992 1.3984 0.39844 126.6 41.398 238.8 121.6v-190.4c0-11-9-20-20-20h-476.41c-11 0-20 9-20 20z"/>
  <path d="m711.22 100h-222.4c-11.199 0-20 9-20 20v174h262.4l0.003906-174c0-11-9-20-20-20z"/>
  <path d="m620.02 1100h207.4c8.6016 0 16.199-5.3984 19-13.402l122-354.2c1.8008-5.1992 1.3984-11-1.1992-15.801-76.199-144.4-290.4-230.6-347.2-251.2z"/>
  <path d="m232.82 716.6c-2.6016 4.8008-3 10.602-1.3984 15.801l122 354.2c2.7969 8.0039 10.395 13.402 18.996 13.402h207.6v-634.6c-56.801 20.602-271 106.8-347.2 251.2z"/>
 </g>
</svg>
