<?xml version="1.0" encoding="UTF-8"?>
<svg width="1200pt" height="1200pt" version="1.1" viewBox="0 0 1200 1200" xmlns="http://www.w3.org/2000/svg">
 <path d="m1104 666-144-72v-294c0-36-24-60-60-60h-120v-180c0-36-24-60-60-60h-240c-36 0-60 24-60 60v180h-120c-36 0-60 24-60 60v294l-144 72c-30 18-42 60-24 90l300 420c12 12 30 24 48 24h354c18 0 36-12 48-24l300-420c30-30 18-72-18-90zm-564-546h120v120h-120zm-180 240h480v174l-216-108c-12-6-36-6-48 0l-216 108zm-150 384 330-168v504h-84zm534 336h-84v-504l330 168z" fill="#fff"/>
</svg>
