<?xml version="1.0" encoding="UTF-8"?>
<svg width="1200pt" height="1200pt" version="1.1" viewBox="0 0 1200 1200" xmlns="http://www.w3.org/2000/svg">
 <path d="m543.11 428.07 56.895-1.0234 56.895 1.0234v84.039h162.91v196.54l-219.8-66.43v0.011719l-219.8 66.418v-196.53h162.91zm60.879-159.95h0.625c32.684 0 59.191 26.496 59.191 59.191 0 32.695-26.508 59.191-59.191 59.191h-0.625c-32.699 0-59.195-26.508-59.195-59.191 0-32.695 26.496-59.191 59.195-59.191zm208.84-192.98c6.7109 5.0273 8.0742 14.559 3.043 21.27-5.0273 6.7109-14.559 8.0742-21.27 3.043-61-45.93-123.08-69.012-186.23-69.078l-4.0781 0.035157-4.0938-0.035157c-63.133 0.066407-125.2 23.152-186.2 69.078-6.7266 5.0273-16.242 3.6797-21.281-3.0352-5.0273-6.7227-3.6797-16.25 3.0352-21.281 66.379-49.961 134.53-75.074 204.45-75.137l4.0938 0.019531 4.0781-0.035156c69.93 0.066406 138.09 25.191 204.45 75.152zm-70.191 68.457c6.3438 5.4961 7.0352 15.098 1.5469 21.457-5.4922 6.3438-15.102 7.0352-21.445 1.5469-39.23-34.004-78.715-51.352-118.44-52.242-39.727 0.89062-79.207 18.238-118.44 52.242-6.3477 5.4883-15.969 4.7969-21.445-1.5469-5.4883-6.3477-4.7969-15.969 1.5469-21.457 44.984-38.98 91.105-58.785 138.34-59.629v0.011719c47.227 0.83594 93.352 20.641 138.34 59.621zm-52.02 59.977c6.5117 5.3008 7.5039 14.883 2.2031 21.391-5.2852 6.5039-14.875 7.5-21.383 2.1953-22.102-18.035-44.426-27.559-66.953-27.812h-0.1875v0.011719h-0.19141c-22.531 0.22656-44.836 9.7656-66.938 27.801-6.5156 5.3008-16.094 4.3086-21.398-2.207-5.3008-6.5-4.3086-16.09 2.207-21.383 27.488-22.43 56.078-34.289 85.891-34.609h0.85937c29.801 0.32422 58.41 12.18 85.891 34.609zm-90.617 459.13 378.84 117.05-148.69 420.23h-230.16v-0.015625h-230.16l-148.69-420.22 378.84-117.05zm266.85 165.16c-16.125-6.7891-38.395 9.6094-49.742 36.594-11.332 27-7.4531 54.375 8.6719 61.148 16.129 6.7773 38.406-9.6055 49.738-36.605 11.348-26.984 7.4688-54.363-8.668-61.137zm-533.7 0c16.145-6.7891 38.414 9.6094 49.754 36.594 11.344 27 7.4648 54.375-8.6836 61.148-16.121 6.7773-38.395-9.6055-49.727-36.605-11.348-26.984-7.4688-54.363 8.6562-61.137z" fill="#fff" fill-rule="evenodd"/>
</svg>
