<svg xmlns="http://www.w3.org/2000/svg" xmlns:xlink="http://www.w3.org/1999/xlink" width="100" height="100" viewBox="0 0 100 100"><circle stroke="none" fill="#000000" r="48%" cx="50%" cy="50%"></circle><g transform="translate(50 50) scale(0.69 0.69) rotate(0) translate(-50 -50)" style="fill:#4ad40d"><svg fill="#4ad40d" xmlns="http://www.w3.org/2000/svg" xmlns:xlink="http://www.w3.org/1999/xlink" version="1.1" x="0px" y="0px" viewBox="0 0 100 100" style="enable-background:new 0 0 100 100;" xml:space="preserve"><path d="M16,79.7c-4.5,0.5-11.2,0.7-11.2,0.7S37.8,71,37.5,70c-0.2-0.5-1.1-1.1-7.4-1.1c-5,0-16.8,0.3-16.8,0.3  c0.2,0,23.1-3.9,26.2-4.9c13.2-4.2,15-11.6,15.2-14.6c0.2-3.5-1.4-6.1-3-6.8c-2-0.9-5.1-2-10.4-2c-8,0-18.5,2.3-31.3,6.9l-5.1,1.8  l4.3-3.3c0.1-0.1,10.6-8.1,19.3-12.5c8.6-4.4,19.2-8.7,25.1-10.4c2.5-0.7,7.4-1.9,11.7-1.9c2.1,0,3.8,0.3,5.1,0.9  c4.2,1.9,4.6,4.6,4.5,6.4c-0.1,1.5-0.8,4.6-1.3,7.1c-0.2,0.9-0.4,1.8-0.5,2.4c-0.3,1.3-0.3,2.5-0.3,3.2c0,0,0,0,0,0  c1.1-1.3,2-3,2.8-4.7c1-1.9,1.9-3.6,3-4.8c2.7-2.9,6.3-3.6,9.7-1.8c0.4,0.2,0.7,0.4,1,0.5c0.9,0.5,1.5,0.9,2.2,0.7l3.8-0.9l-0.3,1.3  c0,0.2-1.2,4.6-2.5,7.3c-1.6,3.5-6.4,12.3-11.3,17.4C75.8,62.2,68,67.1,59.3,70.5C41.1,77.6,17.6,79.5,16,79.7z"></path></svg></g></svg>