<?xml version="1.0" encoding="utf-8"?>
<!-- Generator: Adobe Illustrator 19.2.1, SVG Export Plug-In . SVG Version: 6.00 Build 0)  -->
<svg version="1.1" id="Layer_1" xmlns="http://www.w3.org/2000/svg" xmlns:xlink="http://www.w3.org/1999/xlink" x="0px" y="0px"
	 viewBox="0 0 1200 1200" style="enable-background:new 0 0 215 215;" xml:space="preserve">

<style type="text/css">
	.st0{fill:#FFFFFF;}
	.st1{fill:#4ad40d;}
</style>

<g>
	<path class="st0" d="m600 0c-78.793 0-156.82 15.52-229.61 45.672s-138.94 74.348-194.65 130.07c-55.719 55.715-99.914 121.86-130.07 194.65s-45.672 150.82-45.672 229.61c0 159.13 63.215 311.74 175.74 424.26 112.52 112.52 265.13 175.73 424.27 175.73 159.13 0 311.74-63.215 424.26-175.74 112.52-112.52 175.74-265.13 175.74-424.26 0-159.13-63.215-311.74-175.73-424.27-112.52-112.52-265.13-175.74-424.26-175.74zm0 67.762c69.121 0 137.56 13.766 201.42 40.516 63.859 26.746 121.88 65.953 170.76 115.38s87.645 108.1 114.09 172.67c26.453 64.574 40.066 133.79 40.066 203.68 0 141.16-55.457 276.53-154.16 376.34-98.707 99.816-232.58 155.89-372.18 155.89-69.121 0-137.57-13.766-201.43-40.516-63.855-26.746-121.88-65.949-170.76-115.37-48.875-49.422-87.645-108.1-114.1-172.67-26.449-64.574-40.066-133.79-40.066-203.68 0-69.898 13.613-139.11 40.066-203.68 26.449-64.574 65.219-123.25 114.1-172.68 48.875-49.422 106.9-88.625 170.76-115.38 63.859-26.746 132.3-40.512 201.43-40.512z"/>
	<path class="st1"  d="m343.06 824.45c-34.008 3.7773-84.641 5.2891-84.641 5.2891s249.39-71.035 247.12-78.594c-1.5117-3.7773-8.3125-8.3125-55.922-8.3125-37.785 0-126.96 2.2656-126.96 2.2656 1.5117 0 174.57-29.473 198-37.031 99.754-31.738 113.36-87.664 114.87-110.34 1.5117-26.449-10.578-46.098-22.672-51.387-15.113-6.8008-38.543-15.113-78.594-15.113-60.457 0-139.81 17.383-236.54 52.145l-38.543 13.602 32.496-24.938c0.75391-0.75391 80.105-61.211 145.85-94.465 64.992-33.25 145.1-65.746 189.68-78.594 18.895-5.2891 55.922-14.359 88.418-14.359 15.871 0 28.719 2.2656 38.543 6.8008 31.738 14.359 34.762 34.762 34.008 48.367-0.75391 11.336-6.0469 34.762-9.8242 53.656-1.5117 6.8008-3.0234 13.602-3.7773 18.137-2.2656 9.8242-2.2656 18.895-2.2656 24.184 8.3125-9.8242 15.113-22.672 21.16-35.52 7.5586-14.359 14.359-27.207 22.672-36.273 20.402-21.914 47.609-27.207 73.305-13.602 3.0234 1.5117 5.2891 3.0234 7.5586 3.7773 6.8008 3.7773 11.336 6.8008 16.625 5.2891l28.719-6.8008-2.2656 9.8242c0 1.5117-9.0703 34.762-18.895 55.168-12.09 26.449-48.367 92.953-85.395 131.5-40.812 43.074-99.758 80.105-165.51 105.8-137.54 53.656-315.13 68.016-327.22 69.527z"/>
</g>
</svg>
