<?xml version="1.0" encoding="UTF-8"?>
<svg width="1200pt" height="1200pt" version="1.1" viewBox="0 0 1200 1200" xmlns="http://www.w3.org/2000/svg">
 <path d="m457.03 390.66c0 4.2031 1.668 8.2305 4.6406 11.203s7 4.6406 
 11.203 4.6406c12.66-0.023438 24.812 4.9844 33.781 13.922s14.016 21.074 14.031 33.734-5 24.809-13.941 33.77c-8.9453 
 8.9648-21.086 14.004-33.746 14.012s-24.805-5.0156-33.762-13.965c-8.957-8.9492-13.988-21.094-13.988-33.754h31.781c0 
 4.2305 1.6836 8.2891 4.6797 11.281 2.9961 2.9883 7.0586 4.6641 11.289 4.6562 4.2344-0.007812 8.2891-1.6992 11.27-4.7031 
 2.9844-3 4.6523-7.0664 4.6367-11.297-0.015625-4.2344-1.7148-8.2852-4.7227-11.262-3.0078-2.9805-7.0781-4.6367-11.309-4.6133-12.66 
 0-24.805-5.0312-33.754-13.988-8.9492-8.957-13.973-21.102-13.965-33.762s5.0469-24.801 14.012-33.746c8.9609-8.9414 21.109-13.957 
 33.77-13.941s24.797 5.0625 33.734 14.031 13.945 21.121 13.922 33.781h-31.781c0.33984-4.4258-1.1797-8.793-4.1953-12.051-3.0195-3.2578-7.2578-5.1094-11.695-5.1094s-8.6758 
 1.8516-11.695 5.1094c-3.0156 3.2578-4.5352 7.625-4.1953 12.051zm270.09 79.406c-4.2109 0-8.25-1.668-11.238-4.6367-2.9844-2.9648-4.6758-6.9961-4.6992-11.207h-31.781c0 12.656 
 5.0273 24.793 13.977 33.742 8.9492 8.9492 21.086 13.977 33.742 13.977s24.793-5.0273 33.742-13.977c8.9492-8.9492 13.977-21.086 
 13.977-33.742s-5.0273-24.793-13.977-33.742c-8.9492-8.9492-21.086-13.977-33.742-13.977-4.2383 0.023438-8.3125-1.6406-11.32-4.625-3.0078-2.9844-4.7031-7.043-4.7109-11.281s1.6719-8.3047 4.668-11.301c2.9961-2.9961 7.0625-4.6758 11.301-4.668s8.2969 1.7031 11.281 4.7109c2.9844 3.0078 4.6484 7.082 4.625 11.32h31.781c0.023438-12.668-4.9883-24.824-13.934-33.793-8.9453-8.9688-21.086-14.012-33.754-14.02s-24.816 5.0195-33.773 13.977c-8.957 8.957-13.984 21.105-13.977 33.773s5.0508 24.809 14.02 33.754c8.9688 8.9453 21.125 13.957 33.793 13.934 5.3867 0.41406 10.199 3.5312 12.781 8.2773s2.582 10.48 0 15.227-7.3945 7.8633-12.781 8.2773zm-127.12 31.781c-12.625-0.023438-24.723-5.0508-33.648-13.977-8.9258-8.9258-13.953-21.023-13.977-33.648v-63.562c0-17.016 9.0781-32.738 23.812-41.246 14.734-8.5039 32.891-8.5039 47.625 0 14.734 8.5078 23.812 24.23 23.812 41.246v63.562c-0.023438 12.625-5.0508 24.723-13.977 33.648-8.9258 8.9258-21.023 13.953-33.648 13.977zm0-31.781c4.2031 0 8.2305-1.668 11.203-4.6406s4.6406-7 4.6406-11.203v-63.562c0-5.6602-3.0195-10.891-7.9219-13.723-4.9023-2.8281-10.941-2.8281-15.844 0-4.9023 2.832-7.9219 8.0625-7.9219 13.723v63.562c0 4.2031 1.668 8.2305 4.6406 11.203s7 4.6406 11.203 4.6406zm0 190.69c-47.16 0.019531-93.266-13.949-132.49-40.141-39.219-26.188-69.789-63.422-87.848-106.99-18.055-43.566-22.785-91.512-13.586-137.77 9.1953-46.254 31.902-88.742 65.25-122.09s75.836-56.055 122.09-65.25c46.254-9.1992 94.199-4.4688 137.77 13.586 43.566 18.059 80.801 48.629 106.99 87.848 26.191 39.223 40.16 85.328 40.141 132.49-0.050781 63.188-25.172 123.78-69.855 168.46-44.68 44.684-105.27 69.805-168.46 69.855zm0-31.781c54.699 0 107.16-21.73 145.84-60.41 38.68-38.68 60.41-91.141 60.41-145.84s-21.73-107.16-60.41-145.84c-38.68-38.68-91.141-60.41-145.84-60.41s-107.16 21.73-145.84 60.41c-38.68 38.68-60.41 91.141-60.41 145.84 0.14844 54.656 21.926 107.03 60.574 145.68 38.645 38.648 91.02 60.426 145.68 60.574zm-429 381.38h31.781v-31.781h-31.781zm0-63.562h31.781v-31.781h-31.781zm0-95.344v31.781h31.781v-31.781zm858-63.938h-31.781v31.781h31.781zm0 63.562h-31.781v31.781h31.781zm0 95.344v-31.406h-31.781v31.875zm-158.44-270.38 222 68.344v351l-222.94-68.625-269.62 63.469-269.53-63.469-223.03 68.625v-351l222-68.344 79.594 19.875-56.25-69.188c-45.664-56.645-70.574-127.21-70.594-199.97v-4.3125c0-84.289 33.484-165.12 93.086-224.73 59.602-59.602 140.44-93.086 224.73-93.086s165.12 33.484 224.73 93.086c59.602 59.602 93.086 140.44 93.086 224.73v4.3125c-0.070312 72.781-25.051 143.35-70.781 199.97l-56.25 69.188zm-492.84-69.281 182.81 225.84c9.6289 11.93 24.137 18.867 39.469 18.867s29.84-6.9375 39.469-18.867l182.81-225.84c41.141-50.98 63.633-114.49 63.75-180v-4.3125c-1.9102-74.566-32.875-145.44-86.289-197.5-53.414-52.066-125.05-81.203-199.65-81.203s-146.23 29.137-199.65 81.203c-53.414 52.062-84.379 122.94-86.289 197.5v4.3125c0.0625 65.488 22.488 128.99 63.562 180zm126.47 206.25c-62.062 13.125-94.875 36.562-94.875 53.812 0 26.531 72.562 63.562 190.69 63.562s190.69-37.5 190.69-63.562c0-17.25-32.812-40.688-94.875-53.812l-31.688 39.094c-15.645 19.383-39.215 30.648-64.125 30.648s-48.48-11.266-64.125-30.648zm-364.97 239.34 174.75-53.719v-284.62l-174.75 53.812zm460.78 5.1562 254.25-59.812v-285.19l-96.562 24.094-39.562 49.219c65.625 16.781 104.34 46.875 104.34 81.469 0 61.969-114.66 95.344-222.47 95.344s-222.47-33.375-222.47-95.344c0-35.062 38.531-64.688 104.34-81.469l-39.562-48.844-96.562-24.469v284.81zm460.78-289.69-174.75-53.812v284.53l174.75 53.812z" 
 fill="#ff001b"/>
</svg>
