<?xml version="1.0" encoding="UTF-8"?>
<svg width="1200pt" height="1200pt" version="1.1" viewBox="0 0 1200 1200" xmlns="http://www.w3.org/2000/svg">
 <path d="m721.5 450h-65.25v-152.44zm-177.75-136.88-79.875 136.88h79.875zm-104.81 249.38 56.25 56.25h209.62l56.25-56.25zm161.06 168.75c-79.566 0-155.87-31.605-212.13-87.867-56.262-56.262-87.867-132.57-87.867-212.13s31.605-155.87 87.867-212.13c56.262-56.262 132.57-87.867 212.13-87.867s155.87 31.605 212.13 87.867c56.262 56.262 87.867 132.57 87.867 212.13-0.10547 79.531-31.746 155.78-87.984 212.02s-132.48 87.879-212.02 87.984zm18.75-262.5c0.015625 4.9688 1.9961 9.7305 5.5078 13.242 3.5117 3.5117 8.2734 5.4922 13.242 5.5078h112.5c6.2695-0.046875 12.105-3.2109 15.562-8.4375 3.4609-5.2305 4.0938-11.836 1.6875-17.625l-112.5-262.5c-1.6641-4-4.6719-7.2969-8.5078-9.3164-3.832-2.0195-8.25-2.6367-12.492-1.7461-4.2266 0.87891-8.0273 3.1836-10.758 6.5273-2.7305 3.3477-4.2305 7.5273-4.2422 11.848zm-203.81 9.375c3.3711 5.8125 9.5898 9.3867 16.312 9.375h131.25c4.9688-0.015625 9.7305-1.9961 13.242-5.5078 3.5117-3.5117 5.4922-8.2734 5.5078-13.242v-225c0.046875-5.5469-2.3789-10.828-6.6172-14.406-4.2383-3.582-9.8477-5.0898-15.309-4.1172-5.4609 0.97266-10.207 4.3242-12.949 9.1484l-131.25 225c-1.6875 2.8281-2.5898 6.0547-2.625 9.3516-0.03125 3.293 0.80859 6.5352 2.4375 9.3984zm72.562 178.12h225c4.9727-0.035156 9.7383-1.9844 13.312-5.4375l93.75-93.75c2.5977-2.6406 4.3555-5.9883 5.0547-9.625 0.70312-3.6367 0.3125-7.3984-1.1172-10.812-1.3789-3.4414-3.7617-6.3906-6.8359-8.4648-3.0781-2.0742-6.7031-3.1719-10.414-3.1602h-412.5c-3.7109-0.011719-7.3359 1.0859-10.414 3.1602-3.0742 2.0742-5.457 5.0234-6.8359 8.4648-1.4297 3.4141-1.8203 7.1758-1.1172 10.812 0.69922 3.6367 2.457 6.9844 5.0547 9.625l93.75 93.75c3.5742 3.4531 8.3398 5.4023 13.312 5.4375zm-281.25-225c0-231.94 176.25-393.75 393.75-393.75s393.75 161.81 393.75 393.75c0 222-199.5 441.38-314.44 549.56-46.5 43.688-79.312 69.188-79.312 69.188s-32.812-25.5-79.312-69.188c-114.94-108.19-314.44-327.56-314.44-549.56zm393.75 337.5c89.512 0 175.36-35.559 238.65-98.852 63.293-63.293 98.852-149.14 98.852-238.65s-35.559-175.36-98.852-238.65c-63.293-63.293-149.14-98.852-238.65-98.852s-175.36 35.559-238.65 98.852c-63.293 63.293-98.852 149.14-98.852 238.65 0.10156 89.48 35.695 175.27 98.965 238.54 63.27 63.27 149.05 98.863 238.54 98.965zm79.312 249.56c-46.5 43.688-79.312 69.188-79.312 69.188s-32.812-25.5-79.312-69.188c-74.625 11.25-126.94 38.062-126.94 69.188 0 41.438 92.25 75 206.25 75s206.25-33.562 206.25-75c0-31.125-52.312-57.938-126.94-69.188z" fill="#ff001b"/>
</svg>
