<?xml version="1.0" encoding="UTF-8"?>
<svg width="1200pt" height="1200pt" version="1.1" viewBox="0 0 1200 1200" xmlns="http://www.w3.org/2000/svg">
 <g fill="#ff001b">
  <path d="m621.6 981.6c66-121.2 266.4-500.4 266.4-633.6 0-159.6-128.4-288-288-288s-288 128.4-288 288c0 133.2 200.4 512.4 266.4 633.6 9.6016 16.797 33.602 16.797 43.203 0zm-159.6-633.6c0-75.602 61.199-138 138-138s138 62.398 138 138-62.398 138-138 138-138-62.398-138-138z"/>
  <path d="m600 1068c-75.602 0-138 16.801-138 36 0 20.398 61.199 36 138 36s138-16.801 138-36c0-20.398-62.398-36-138-36z"/>
 </g>
</svg>
