<?xml version="1.0" encoding="UTF-8"?>
<svg width="1200pt" height="1200pt" version="1.1" viewBox="0 0 1200 1200" xmlns="http://www.w3.org/2000/svg">
 <g fill="#ff001b">
  <path d="m505.21 968.18h174.91c7.5703-41.676 13.812-69.289 18.996-107.18h-208.21c5.5938 57.59 11.559 88.609 14.305 107.18z"/>
  <path d="m479.83 554.02h238.38c-1.7773-63.035-7.5859-117.41-15.91-164.17h-207.05c-8.6914 52.777-13.43 108.61-15.422 164.17z"/>
  <path d="m599.83 143.23c-46.586 38.664-65.93 88.934-86.426 162.72h169.36c-32.648-110.5-66.117-147.62-82.93-162.72z"/>
  <path d="m484.87 789.09h222.91c5.7617-54.48 9.1211-104.84 10.367-151.16h-239.43c0.43359 53.398 2.8828 104.83 6.1562 151.16z"/>
  <path d="m842.9 424.2c-6.6484-52.285-12.07-84.562-30.504-131.09-24.395-61.609-57.863-124.26-107.51-168.72-34.957-31.297-88.285-86.387-139.61-54.707-31.117 19.199-59.723 41.652-85.441 67.812-53.84 54.758-111.66 136.99-122.64 286.11-0.43359 5.7617-1.8477 13.152 3.8867 13.586 5.5781 0.45703 7.7773-3.9258 8.1953-9.6953 10.066-136.71 68.578-216.31 124.67-273.83-2.3984 3.2031-4.8125 6.4453-7.2227 9.8398-44.461 62.605-90.625 169.91-90.625 327.89 0 5.8906 1.0547 11.16 6.8516 11.16 5.8086 0 4.8125-5.6992 4.8125-11.594 0-168.71 62.988-278.96 116.15-342.06-192.2 285.86-62.098 949.58-62.098 949.58h71.398c3.0352 9.3711 6.3359 16.188 8.8672 17.461 4.2461 2.125 8.0039 5.8906 8.3398 8.375 0.33594 2.4844 4.5703 7.2969 9.4062 10.691 4.8477 3.3945 19.453 6.168 32.449 6.168s27.602-2.7734 32.449-6.168c4.8477-3.3945 9.0859-8.1953 9.4062-10.691 0.33594-2.4844 4.0781-6.2539 8.3398-8.375 2.5312-1.2617 5.8438-8.0898 8.8672-17.461h70.285c111.39-553.37 31.656-819.59-40.824-939.94 51.301 64.43 108.25 172 108.25 332.41 0 5.8906-0.99609 11.594 4.8008 11.594 5.8086 0 6.8516-5.2695 6.8516-11.16 0-157.98-46.164-265.29-90.625-327.89-4.3906-6.1797-8.7617-11.941-13.117-17.508 2.3164 2.2578 4.6328 4.5352 6.9609 6.9102 51.098 52.176 116.35 130.69 126.83 273.01 0.40625 5.5078 1.1172 11.328 6.5039 11.328 0.25391 0 0.51562-0.011719 0.78125-0.035157 5.7617-0.44141 5.582-7.2695 4.8594-13.008zm-140.8 567.95h-219.16s-115.05-701.81 117-876.25c-0.011718 0 235.22 157.6 102.16 876.25z"/>
 </g>
</svg>
